<svg xmlns="http://www.w3.org/2000/svg" width="739" height="494" fill="none" xmlns:v="https://vecta.io/nano"><style><![CDATA[.B{fill:#060633}.C{fill:#fb9391}.D{fill:#fff}.E{fill:#bdd1f9}.F{fill:#7c9af2}.G{fill:#91b5f8}.H{fill:#0b0755}.I{fill:#ea6868}.J{fill:#050521}.K{fill:#fa7267}.L{fill:#f4a50c}]]></style><path d="M633.087 493.983c64.853 1.301 105.514-72.825 105.451-118.4-.066-49.241-27.883-93.058-44.256-138.989-14.511-40.695-9.183-86.894-31.568-125.302-27.228-46.715-88.435-60.443-140.499-76.902C454.903 13.118 383.98-5.643 311.332 1.573c-51.177 5.078-101.393 23.606-137.2 55.756-28.173 25.282-46.062 57.154-66.501 87.111-21.142 30.984-48.491 51.49-74.838 78.184-73.812 74.766-10.13 209.417 64.067 264.892l536.227 6.467z" fill="url(#A)"/><path d="M382.569 475.947c188.279 0 340.91-10.591 340.91-23.655s-152.631-23.654-340.91-23.654-340.91 10.59-340.91 23.654 152.631 23.655 340.91 23.655z" fill="url(#B)"/><g class="E"><path d="M576.284 358.624c-.044-.003-.088-.012-.13-.025-.084-.023-.163-.062-.232-.115s-.127-.119-.171-.195-.071-.159-.083-.245-.004-.175.019-.259c25.143-92.515 48.52-157.991 65.822-184.335.384-.587.664-1.01.766-1.223.039-.078.092-.148.158-.206a.67.67 0 0 1 .224-.13.68.68 0 0 1 .257-.034.69.69 0 0 1 .251.067c.078.039.148.092.206.158a.67.67 0 0 1 .129.224.66.66 0 0 1 .035.257.69.69 0 0 1-.067.251 15.97 15.97 0 0 1-.847 1.364c-17.227 26.244-40.544 91.585-65.653 183.956-.04.148-.13.277-.255.367a.67.67 0 0 1-.429.123z"/><path d="M653.932 168.403c-2.055 2.964-12.639 8.578-13.486 7.994s.709-12.468 2.767-15.431c1.001-1.387 2.505-2.326 4.19-2.614a6.52 6.52 0 0 1 4.821 1.07c1.405.975 2.371 2.462 2.69 4.141a6.52 6.52 0 0 1-.982 4.84zm-20.478 9.372c1.154 3.503-.775 15.608-1.773 15.937s-9.751-8.253-10.905-11.756c-.554-1.682-.418-3.514.379-5.095a6.68 6.68 0 0 1 3.87-3.335 6.67 6.67 0 0 1 8.429 4.249z"/><path d="M646.804 198.502c-3.669.335-15.03-4.27-15.127-5.318s10.238-7.64 13.91-7.977c.895-.127 1.807-.071 2.68.165s1.69.648 2.399 1.209 1.297 1.261 1.728 2.056a6.66 6.66 0 0 1 .778 2.571c.082.901-.019 1.809-.298 2.669a6.69 6.69 0 0 1-1.325 2.336c-.596.681-1.323 1.234-2.139 1.625a6.68 6.68 0 0 1-2.606.65v.014zm-43.241 40.945c2.559 5.633 1.53 26.186-.078 26.916s-17.763-12.014-20.325-17.647a11.2 11.2 0 0 1 5.628-14.701c2.682-1.219 5.737-1.332 8.502-.316a11.21 11.21 0 0 1 6.273 5.748z"/><path d="M629.595 271.609c-6.065 1.226-25.857-4.404-26.208-6.137s15.705-14.603 21.77-15.829a11.21 11.21 0 0 1 12.996 8.81 11.21 11.21 0 0 1-8.569 13.156h.011zm-41.502-8.782c4.574 6.035 8.882 30.846 7.158 32.152s-24.443-9.557-29.014-15.592c-1.087-1.435-1.881-3.07-2.336-4.812a13.7 13.7 0 0 1-.317-5.341 13.73 13.73 0 0 1 1.75-5.056 13.71 13.71 0 0 1 3.553-4c1.435-1.087 3.07-1.881 4.812-2.337a13.72 13.72 0 0 1 5.341-.317 13.7 13.7 0 0 1 5.055 1.751 13.71 13.71 0 0 1 4.001 3.552h-.003z"/><path d="M625.214 304.851c-7.539.728-30.92-8.619-31.128-10.769s20.954-15.799 28.5-16.526c1.792-.174 3.601.008 5.323.534s3.324 1.386 4.713 2.531a13.71 13.71 0 0 1 3.387 4.142 13.72 13.72 0 0 1 1.543 5.122 13.71 13.71 0 0 1-.534 5.323c-.526 1.722-1.386 3.324-2.531 4.714a13.72 13.72 0 0 1-4.142 3.386 13.7 13.7 0 0 1-5.122 1.543h-.009zM578.94 293.02c4.574 6.035 8.879 30.846 7.158 32.152s-24.443-9.555-29.017-15.592a13.71 13.71 0 0 1-2.531-10.098c.516-3.568 2.417-6.789 5.29-8.966s6.489-3.135 10.064-2.667a13.71 13.71 0 0 1 9.036 5.171z"/><path d="M616.058 335.044c-7.537.728-30.92-8.619-31.128-10.769s20.954-15.799 28.499-16.527c3.62-.349 7.23.754 10.037 3.066a13.71 13.71 0 0 1 4.928 9.265c.35 3.62-.753 7.23-3.066 10.036s-5.645 4.58-9.264 4.929h-.006zm-57.936-3.835c6.527 3.841 19.96 25.14 18.865 27.002s-26.239.476-32.766-3.364a13.71 13.71 0 0 1-6.322-8.377c-.913-3.519-.39-7.258 1.453-10.393a13.71 13.71 0 0 1 8.377-6.321c3.52-.913 7.258-.39 10.393 1.453z"/><path d="M608.045 364.88c-7.388 1.66-31.756-4.685-32.232-6.793s18.815-18.295 26.203-19.958c3.547-.799 7.267-.157 10.341 1.786a13.71 13.71 0 0 1 4.263 18.916c-1.943 3.074-5.028 5.249-8.575 6.049zm16.195-167.906c1.173 3.559-.789 15.858-1.804 16.192s-9.906-8.386-11.068-11.944c-.563-1.709-.424-3.571.385-5.177a6.78 6.78 0 0 1 12.498.929h-.011z"/><path d="M637.328 218.274c-3.73.341-15.274-4.338-15.373-5.404s10.403-7.764 14.136-8.104a6.78 6.78 0 0 1 7.372 6.136c.164 1.791-.39 3.574-1.54 4.957a6.78 6.78 0 0 1-4.595 2.415zm-23.712-3.414c2.075 4.9.733 22.545-.667 23.137s-15.005-10.722-17.081-15.622a9.64 9.64 0 0 1 .018-7.315c.967-2.341 2.817-4.208 5.15-5.195a9.64 9.64 0 0 1 12.58 4.995z"/><path d="M634.614 245.077c-5.299.485-21.698-6.164-21.837-7.675s14.781-11.029 20.08-11.516a9.63 9.63 0 0 1 3.785.343c1.226.364 2.367.969 3.358 1.779a9.62 9.62 0 0 1 2.409 2.939 9.64 9.64 0 0 1 1.086 3.641 9.65 9.65 0 0 1-.407 3.779 9.64 9.64 0 0 1-1.835 3.327c-.827.976-1.84 1.778-2.979 2.359a9.63 9.63 0 0 1-3.66 1.024zM181.598 398.382a.48.48 0 0 0 .081-.075.54.54 0 0 0 .128-.386c-.01-.14-.075-.271-.181-.364-58.033-50.455-102.822-83.663-126.114-93.522-.517-.218-.891-.376-1.054-.47a.52.52 0 0 0-.2-.08.54.54 0 0 0-.216.005.55.55 0 0 0-.196.091.54.54 0 0 0-.144.16c-.037.063-.06.133-.069.205a.52.52 0 0 0 .018.215.53.53 0 0 0 .27.325 12.66 12.66 0 0 0 1.176.531c23.19 9.809 67.879 42.957 125.829 93.337.092.081.209.128.331.133s.243-.032.341-.105z"/><path d="M44.977 306.213c2.689 1.057 12.252.08 12.554-.689s-6.032-7.994-8.724-9.054c-1.285-.475-2.705-.428-3.956.132s-2.232 1.588-2.733 2.863-.483 2.696.052 3.958a5.24 5.24 0 0 0 2.808 2.79zm17.832-2.881c.794 2.85 7.471 10.058 8.301 9.831s2.817-9.853 2.025-12.7a5.36 5.36 0 0 0-2.527-3.231c-1.238-.7-2.702-.878-4.071-.497s-2.531 1.289-3.231 2.526a5.36 5.36 0 0 0-.498 4.071z"/><path d="M63.158 323.105c2.598-1.414 8.115-9.552 7.714-10.293s-10.238-.526-12.833.888a5.36 5.36 0 0 0-2.765 5.268 5.35 5.35 0 0 0 1.959 3.6 5.35 5.35 0 0 0 1.85.971 5.34 5.34 0 0 0 4.076-.432v-.002zm47.092 7.993c.806 4.898 10.661 18.14 12.059 17.908s6.483-15.932 5.677-20.829c-.387-2.352-1.693-4.454-3.63-5.843a8.99 8.99 0 0 0-14.106 8.764z"/><path d="M107.249 364.166c4.59-1.89 15.274-14.474 14.734-15.772s-16.983-2.728-21.582-.83a8.99 8.99 0 0 0-4.892 11.732 8.99 8.99 0 0 0 11.732 4.892l.008-.022zm23.743-24.374c-.355 6.062 7.841 24.523 9.573 24.626s12.031-17.274 12.385-23.339a11 11 0 0 0-10.342-11.515c-2.893-.169-5.737.81-7.912 2.725a11 11 0 0 0-3.704 7.503z"/><path d="M124.995 384.365c5.349-2.878 16.768-19.541 15.946-21.065s-21.028-1.184-26.366 1.693c-2.514 1.411-4.374 3.753-5.18 6.521a11 11 0 0 0 .876 8.282c1.366 2.54 3.674 4.441 6.428 5.295a11 11 0 0 0 8.296-.729v.003zm25.57-28.53c-.357 6.062 7.841 24.523 9.571 24.625s12.03-17.274 12.387-23.336a11 11 0 0 0-10.34-11.524c-2.895-.17-5.739.81-7.915 2.727s-3.507 4.615-3.703 7.508z"/><path d="M144.569 400.407c5.349-2.878 16.765-19.537 15.946-21.065s-21.029-1.184-26.366 1.694c-1.298.669-2.45 1.59-3.389 2.71s-1.645 2.414-2.077 3.809-.583 2.863-.442 4.317a11 11 0 0 0 1.261 4.151 11.02 11.02 0 0 0 2.769 3.341 11.01 11.01 0 0 0 3.846 2.009c1.403.408 2.872.532 4.324.366a10.98 10.98 0 0 0 4.128-1.335v.003zm36.908-28.402c-2.637 5.473-2.089 25.663-.529 26.415s17.709-11.388 20.343-16.858a11 11 0 0 0-5.129-14.686c-2.627-1.267-5.65-1.439-8.404-.477a11 11 0 0 0-6.281 5.606z"/><path d="M163.22 416.721c5.667-2.186 19.092-17.288 18.456-18.907s-20.705-3.801-26.372-1.615a11 11 0 0 0-6.17 5.794c-.595 1.325-.921 2.756-.96 4.208s.21 2.898.733 4.253a11 11 0 0 0 2.313 3.644c1.004 1.05 2.207 1.891 3.537 2.473a11 11 0 0 0 4.217.922c1.452.025 2.896-.237 4.246-.772zM77.521 312.02c.805 2.895 7.598 10.219 8.425 9.989s2.872-10.002 2.056-12.905c-.187-.693-.51-1.341-.95-1.909s-.986-1.042-1.61-1.397a5.44 5.44 0 0 0-2.023-.671 5.43 5.43 0 0 0-2.126.158 5.42 5.42 0 0 0-1.902.963c-.564.443-1.035.993-1.386 1.619s-.574 1.316-.657 2.029a5.44 5.44 0 0 0 .173 2.124z"/><path d="M78.304 332.056c2.637-1.436 8.245-9.704 7.836-10.459s-10.398-.534-13.038.902c-.627.341-1.182.803-1.631 1.359a5.44 5.44 0 0 0-.986 1.879 5.45 5.45 0 0 0-.192 2.114c.075.71.29 1.4.632 2.027a5.45 5.45 0 0 0 1.359 1.631c.556.449 1.194.784 1.88.986s1.404.268 2.114.192a5.47 5.47 0 0 0 2.027-.631zm14.277-12.855c.802 4.191 9.571 15.353 10.766 15.124s5.219-13.835 4.427-18.032a7.74 7.74 0 0 0-1.134-2.797 7.73 7.73 0 0 0-2.119-2.149c-.84-.571-1.785-.97-2.779-1.175a7.74 7.74 0 0 0-3.018-.022 7.72 7.72 0 0 0-2.796 1.135c-.849.558-1.579 1.278-2.149 2.118a7.73 7.73 0 0 0-1.175 2.78 7.74 7.74 0 0 0-.022 3.018z"/><path d="M92.064 348.713c3.749-2.04 11.715-13.788 11.131-14.859s-14.772-.758-18.521 1.284c-.895.484-1.685 1.139-2.326 1.928s-1.12 1.698-1.409 2.673-.383 1.997-.277 3.009.412 1.991.898 2.884a7.71 7.71 0 0 0 1.936 2.32c.792.639 1.701 1.115 2.677 1.401a7.73 7.73 0 0 0 5.891-.64z"/></g><path d="M234.289 385.883s54.578-69.964-79.981-142.773c0 0-18.062 156.533 79.981 142.773z" class="F"/><path d="M154.162 242.833l85.379 133.173c9.51-21.591 19.31-76.517-85.379-133.173z" class="G"/><g class="B"><path d="M235.903 370.638a.28.28 0 0 0 .174-.039c.029-.018.053-.042.073-.07a.26.26 0 0 0 .04-.092c.007-.034.008-.068.002-.101s-.019-.066-.037-.094l-81.777-127.555c-.037-.058-.095-.098-.161-.113s-.137-.003-.194.034a.26.26 0 0 0-.114.161.26.26 0 0 0 .035.194l81.776 127.556c.021.031.048.057.079.078s.067.034.104.041z"/><path d="M196.82 309.677c.061.007.123-.009.173-.043a.26.26 0 0 0 .104-.145c.009-.033.012-.067.008-.1a.26.26 0 0 0-.032-.096.25.25 0 0 0-.066-.075c-.027-.021-.057-.036-.09-.045l-40.61-11.067c-.033-.01-.067-.013-.101-.009s-.066.015-.096.032-.055.04-.076.068-.035.058-.043.091a.26.26 0 0 0 .025.195c.034.059.09.102.155.121l40.61 11.051.039.022zm17.514 27.32h.053c.067-.008.128-.041.173-.092s.068-.117.068-.184l-2.823-41.227c-.004-.069-.036-.132-.088-.177s-.119-.068-.187-.063-.132.037-.177.088-.067.119-.062.188l2.822 41.227c.003.059.027.116.068.16s.094.072.153.08z"/></g><path d="M229.655 409.364s-15.625-95.642-173.794-41.742c0 0 112.119 130.563 173.794 41.742z" class="G"/><path d="M55.861 367.622l173.794 41.742s-45.727 93.632-173.794-41.742z" class="F"/><path d="M101.466 396.141c.024.002.048.002.072 0l40.27-8.91c.073-.016.141-.046.202-.089a.57.57 0 0 0 .234-.365c.013-.073.011-.148-.005-.221a.56.56 0 0 0-.088-.203.57.57 0 0 0-.16-.153c-.062-.04-.132-.067-.206-.08s-.148-.012-.221.004l-40.269 8.89c-.147.023-.279.103-.367.223a.56.56 0 0 0 .122.783.56.56 0 0 0 .416.101v.02zm57.809 26.399c.043-.005.086-.015.127-.028l51.841-17.077c.143-.047.261-.149.328-.283a.56.56 0 0 0-.25-.759.57.57 0 0 0-.432-.032l-51.841 17.078c-.073.014-.142.043-.203.085a.58.58 0 0 0-.155.157.56.56 0 0 0-.082.424c.015.073.044.142.086.203a.55.55 0 0 0 .156.155c.062.041.132.07.205.084a.56.56 0 0 0 .22-.002v-.005z" class="G"/><path d="M563.47 421.712s-38.811-77.197 103.566-121.158c0 0-12.534 152.959-103.566 121.158z" class="F"/><path d="M667.227 300.325L560.332 411.278c-4.972-22.431-3.882-76.76 106.895-110.953z" class="G"/><g class="B"><path d="M564.832 406.843c-.059-.002-.116-.027-.158-.069-.046-.047-.072-.111-.072-.177s.026-.13.072-.177L667.05 300.15c.048-.046.111-.073.178-.073s.13.027.177.073c.023.023.042.051.054.081s.02.063.02.096-.007.066-.02.096-.031.058-.054.081l-102.376 106.27c-.026.025-.057.044-.091.056s-.07.017-.106.013z"/><path d="M613.764 356.053c-.061-.006-.119-.035-.16-.082a.25.25 0 0 1-.065-.168c0-.062.023-.122.065-.169s.099-.075.16-.082l40.896-2.83c.034-.005.068-.002.101.007s.063.026.089.048a.24.24 0 0 1 .086.177c.004.034.001.068-.008.1s-.027.063-.048.089a.24.24 0 0 1-.079.062.25.25 0 0 1-.097.026l-40.892 2.831-.048-.009zm-21.919 22.764h-.05c-.064-.018-.119-.061-.152-.119s-.042-.127-.025-.191l10.528-38.831a.24.24 0 0 1 .043-.088c.02-.026.045-.048.074-.065a.25.25 0 0 1 .19-.024c.064.018.119.061.152.118s.042.127.025.192l-10.539 38.833c-.017.052-.05.097-.094.128s-.098.048-.152.047z"/></g><path d="M561.215 419.56s10.058-71.199 128.25-33.757c0-.005-81.074 98.652-128.25 33.757z" class="G"/><path d="M689.465 385.798l-128.25 33.756s35.422 68.728 128.25-33.756z" class="F"/><path d="M656.093 407.695h-.053l-30.015-5.963c-.11-.021-.207-.086-.27-.179s-.085-.207-.063-.317.086-.207.179-.27.207-.085.317-.064l30.016 5.966a.42.42 0 0 1 .251.17c.06.086.085.191.071.295a.42.42 0 0 1-.146.266c-.08.068-.182.103-.287.099v-.003zm-42.458 20.522c-.032-.002-.064-.009-.094-.019l-38.737-11.837c-.052-.016-.101-.042-.144-.077a.42.42 0 0 1-.103-.127.43.43 0 0 1-.046-.156.41.41 0 0 1 .016-.163c.016-.052.043-.101.078-.143a.41.41 0 0 1 .127-.104.42.42 0 0 1 .156-.046c.055-.005.11 0 .162.016l38.737 11.835a.42.42 0 0 1 .164.762c-.092.063-.206.088-.316.068v-.009z" class="G"/><path d="M303.335 126.047l-.642-1.464c-1.241-2.771-2.656-5.461-4.236-8.054-6.464-10.636-15.546-19.436-26.381-25.561a72.77 72.77 0 0 0-35.504-9.419h-.761a72.63 72.63 0 0 0-51.144 21.339c-3.775 3.773-7.125 7.949-9.992 12.451a72.33 72.33 0 0 0-4.388 7.963 90.71 90.71 0 0 0-1.231 2.748c-3.779 8.978-5.726 18.62-5.726 28.361s1.947 19.383 5.726 28.361c.467 1.107.957 2.194 1.477 3.268a72.21 72.21 0 0 0 4.458 7.935 72.75 72.75 0 0 0 26.188 24.363c10.621 5.815 22.526 8.887 34.634 8.937h.759a72.86 72.86 0 0 0 39.143-11.632c11.672-7.53 20.949-18.239 26.737-30.865.304-.66.599-1.327.883-2.001 3.777-8.978 5.723-18.62 5.723-28.361s-1.946-19.382-5.723-28.361v-.008zm-9.292 55.253a134.91 134.91 0 0 0-21.305-5.57c2.11-13.919 2.143-28.074.097-42.002 7.764-1.417 14.997-3.32 21.452-5.644.229.498.448 1.001.661 1.508 3.307 7.857 5.011 16.296 5.011 24.822a63.99 63.99 0 0 1-5.011 24.822 48.48 48.48 0 0 1-.905 2.064zm-86.92-26.886c-.011-6.599.477-13.19 1.461-19.715 9.662 1.389 19.413 2.076 29.175 2.056a204.62 204.62 0 0 0 26.111-1.632 133.75 133.75 0 0 1-.097 39.218c-8.626-1.092-17.314-1.634-26.009-1.621-9.73-.018-19.449.666-29.08 2.047a129.99 129.99 0 0 1-1.561-20.353zm53.894-58.767a64.15 64.15 0 0 1 28.887 24.349c-6.113 2.075-12.375 3.682-18.732 4.806-1.724-7.59-4.12-14.593-7.128-20.708-1.623-3.344-3.548-6.533-5.752-9.526.915.341 1.823.701 2.725 1.079zm-14.7-.742c3.486 2.999 6.795 7.562 9.57 13.204 2.621 5.326 4.732 11.433 6.281 18.071a196.61 196.61 0 0 1-24.409 1.486c-9.181.019-18.352-.614-27.443-1.893 1.541-6.483 3.619-12.451 6.187-17.664 2.767-5.642 6.087-10.204 9.568-13.204 3.298-2.831 6.704-4.269 10.124-4.269s6.826 1.439 10.122 4.269zm-55.22 14.411a63.59 63.59 0 0 1 20.273-13.669c.906-.382 1.815-.742 2.729-1.079a60.78 60.78 0 0 0-5.75 9.526c-2.93 5.96-5.282 12.764-6.995 20.132a118.66 118.66 0 0 1-18.262-5.143c2.341-3.511 5.022-6.783 8.005-9.767zm-13.668 69.92c-3.308-7.858-5.011-16.297-5.011-24.822s1.703-16.965 5.011-24.822c.359-.851.735-1.688 1.126-2.513l.323.127c6.207 2.419 13.201 4.411 20.752 5.938-2.167 14.309-2.135 28.865.097 43.164-7.587 1.53-14.615 3.528-20.851 5.958l-.061.024a62.94 62.94 0 0 1-1.386-3.054zm33.941 33.942c-11.31-4.806-21.003-12.76-27.923-22.916a119.26 119.26 0 0 1 18.062-5.039c1.699 7.128 4.001 13.716 6.848 19.507 1.623 3.345 3.549 6.534 5.755 9.527a61.15 61.15 0 0 1-2.742-1.079zm14.701.741c-3.484-2.996-6.793-7.562-9.568-13.204-2.49-5.046-4.51-10.791-6.035-17.033a193.9 193.9 0 0 1 27.291-1.87c8.109-.013 16.211.477 24.26 1.466-1.536 6.395-3.597 12.283-6.132 17.432-2.767 5.642-6.087 10.207-9.57 13.204-3.296 2.833-6.702 4.269-10.122 4.269s-6.817-1.431-10.124-4.264zm55.22-14.41a63.54 63.54 0 0 1-20.274 13.669 63.97 63.97 0 0 1-2.725 1.079 60.87 60.87 0 0 0 5.752-9.527c2.925-5.946 5.271-12.728 6.984-20.079a127.93 127.93 0 0 1 18.538 4.703 63.84 63.84 0 0 1-8.275 10.155z" class="E"/><path d="M567.878 167.432H227.07c-5.133 0-9.294 4.161-9.294 9.294v248.669c0 5.133 4.161 9.294 9.294 9.294h340.808c5.133 0 9.294-4.161 9.294-9.294V176.726c0-5.133-4.161-9.294-9.294-9.294z" class="J"/><path d="M569.065 176.77H225.884V431.972H569.065V176.77Z" class="D"/><path d="M612.663 424.302H182.282V441.41H612.663V424.302Z" class="J"/><path d="M562.302 182.194H232.643V416.663H562.302V182.194Z" fill="#e7eefd"/><path d="M111.783 273.887c-.163 2.454.786 4.98.105 7.338-.904 3.126-4.321 4.864-5.771 7.78-1.519 3.044-.722 7.067-2.87 9.715-.763.941-1.826 1.596-2.639 2.49-.916 1.064-1.462 2.398-1.554 3.799a6.48 6.48 0 0 0 1.042 3.971c1.765 2.567 5.171 3.466 8.287 3.447s6.209-.752 9.322-.606c3.165.15 6.261 1.212 9.429 1.107 4.386-.141 8.492-2.568 11.345-5.905s4.551-7.515 5.641-11.765a25.81 25.81 0 0 0 .83-4.939c.357-6.499-2.935-12.639-6.745-17.921-1.738-2.41-3.705-4.809-6.397-6.068-6.102-2.855-19.449-.93-20.025 7.557z" fill="#f96058"/><path d="M142.22 436.554s-1.107 10.996 1.132 12.244c4.064 2.258 11.563 4.413 10.935 6.364s-18.602 2.014-19.092.246 1.516-7.194-.62-17.708l7.645-1.146z" class="C"/><path d="M135.377 451.46c-.191 1.967-.357 3.32-.18 3.948.498 1.768 18.472 1.693 19.092-.246.468-1.439-3.503-3.06-7.269-4.676-.882 1.485-2.78 3.815-11.643.974z" class="H"/><path d="M108.517 436.242s-2.969 10.644-.969 12.257c3.622 2.916 10.644 6.317 9.684 8.121s-18.674-1.182-18.865-3.008 2.718-6.82 2.408-17.567l7.742.197z" class="C"/><path d="M99.227 449.747c-.523 1.909-.919 3.21-.849 3.874.191 1.826 17.916 4.814 18.865 3.007.703-1.336-2.933-3.611-6.364-5.843-1.137 1.311-3.406 3.284-11.652-1.038z" class="H"/><path d="M149.104 310.496s3.774 5.058 6.917 5.058 13.835-13.376 13.835-13.376l2.518 4.054s-8.968 19.546-17.155 19.703-14.316-8.967-14.158-9.438 5.348-6.001 5.348-6.001h2.695z" class="C"/><path d="M140.136 339.073s4.881 5.915 7.084 12.838-3.639 88.937-3.639 88.937h-9.756l-5.174-73.688c0-2.551-19.208 73.688-19.208 73.688h-9.74s5.257-89.269 17.501-101.775l11.447.708 11.485-.708z" class="H"/><path d="M140.136 336.004v3.069s-5.811 5.664-22.932 0l-.039-3.069 15.024-.943 7.947.943z" class="B"/><path d="M134.317 299.002s6.065-.224 9.131 1.898c2.2 1.522 7.059 10.091 7.059 10.091l-5.578 4.74s1.33 5.171-3.874 7.767l-.941 12.506s-9.756 5.664-22.965 0c0 0-2.518-23.441-4.878-21.397-1.368 1.174-2.631 2.463-3.775 3.855l-8.809-8.73s9.605-9.623 12.781-11.131c7.471-3.539 13.489-.136 13.489-.136l8.361.537z" class="D"/><g class="C"><path d="M107.689 317.646s-5.116 5.971-4.524 7.622 9.618 15.254 10.827 17.833.852 4.115.852 4.115l-4.601 2.241s-.238-3.641-1.24-4.704-16.222-16.765-15.868-21.72 7.338-12.529 7.338-12.529l7.216 7.142zm29.29-37.835s.667-1.309 1.362-.886c1.768 1.077.202 2.953-.83 3.439l-.532-2.553z"/><path d="M125.065 266.214a9.99 9.99 0 0 0-4.339 1.944c-1.268.988-2.28 2.268-2.947 3.73s-.973 3.065-.888 4.671a9.97 9.97 0 0 0 1.373 4.552c1.765 3.298 3.204 5.952 4.864 7.817a9.94 9.94 0 0 1 2.527 6.823l-.072 2.54c6.101 2.227 8.483.694 8.483.694l-.847-7.415c6.157-1.455 4.01-12.88 3.62-16.286 0-.127-.02-.257-.036-.385a10 10 0 0 0-1.274-3.861 9.99 9.99 0 0 0-2.707-3.033 9.98 9.98 0 0 0-7.757-1.791z"/></g><path d="M125.433 276.335c-1.508 2.261-3.132 4.494-4.167 7.001-.113.276-.91 2.341-.589 2.531-1.752-1.037-2.988-2.747-4.068-4.471-1.864-2.994-1.862-6.843-.354-9.983s4.383-4.956 7.703-5.614c3.572-.706 7.643.055 10.188 2.811 2.394 2.587 2.894 6.148 3.514 9.469-.697-3.728-6.07-5.955-9.252-6.937.094.03-1.882 3.506-1.987 3.677l-.988 1.516z" fill="#f96058"/><path d="M121.612 283.546a1.48 1.48 0 0 0-.852-.612c-.717-.199-1.959-.362-2.695.554-1.079 1.358 1.74 4.308 3.979 2.426 0 .009.614-.763-.432-2.368z" class="C"/><path d="M135.349 280.093a.87.87 0 0 0-.155-.481c-.099-.142-.237-.251-.397-.314a.87.87 0 0 0-.504-.04c-.169.037-.322.122-.442.246s-.2.281-.231.45a.88.88 0 0 0 .058.502c.069.158.183.293.328.386a.87.87 0 0 0 .819.067.86.86 0 0 0 .464-.481.85.85 0 0 0 .06-.335zm-8.071 1.851c-.003-.173-.056-.34-.155-.482a.88.88 0 0 0-.901-.356c-.168.037-.322.122-.442.246s-.2.281-.231.451a.87.87 0 0 0 .387.888.86.86 0 0 0 .487.138.86.86 0 0 0 .332-.071.89.89 0 0 0 .28-.194.87.87 0 0 0 .183-.286c.042-.106.062-.22.06-.334z" class="B"/><path d="M134.473 286.202s-1.148-.83-1.588-.691a1.3 1.3 0 0 0-.667.683 1.03 1.03 0 0 0-.349-.366c-.145-.09-.311-.142-.481-.151-.554 0-1.66 1.505-1.66 1.505s1.615 2.335 3.245 1.981 1.5-2.839 1.5-2.839v-.122z" class="K"/><path d="M124.556 280.945c-.053.007-.106.003-.156-.013a.35.35 0 0 1-.135-.081.36.36 0 0 1-.115-.252c-.004-.096.031-.189.096-.26.716-.694 1.649-1.12 2.642-1.209.096-.008.192.023.265.085a.36.36 0 0 1 .128.247.37.37 0 0 1-.332.39c-.814.073-1.579.419-2.172.982a.35.35 0 0 1-.221.111zm8.314-2.562c-.052-.007-.103-.025-.148-.053s-.083-.066-.112-.11-.044-.084-.053-.131a.37.37 0 0 1 0-.141c.009-.046.028-.091.055-.13s.061-.073.101-.099a4.3 4.3 0 0 1 2.852-.554c.05.004.099.018.144.041a.36.36 0 0 1 .114.095.35.35 0 0 1 .067.133c.013.048.016.099.008.149a.35.35 0 0 1-.052.139c-.027.042-.063.078-.104.106a.37.37 0 0 1-.138.056c-.05.009-.1.007-.149-.005-.809-.122-1.635.033-2.344.44-.071.048-.155.071-.241.064z" class="B"/><path d="M131.557 284.797a1.55 1.55 0 0 0 .891-.543 1.54 1.54 0 0 0 .345-.985c-.002-.077-.035-.151-.091-.204-1.046-1.016-1.14-2.668-1.14-2.684a.31.31 0 0 0-.029-.116.3.3 0 0 0-.071-.095c-.029-.027-.064-.048-.102-.061a.29.29 0 0 0-.117-.018.31.31 0 0 0-.116.029c-.036.018-.068.042-.095.071s-.048.065-.061.102-.02.078-.018.118c0 .075.095 1.804 1.223 2.991-.03.246-.215.808-1.192.872-.04.002-.079.013-.115.03s-.068.042-.095.073-.046.065-.059.102-.019.078-.016.118.013.079.03.115.043.068.073.095.065.047.103.06.078.018.118.015c.18-.012.359-.041.534-.085z" class="I"/><path d="M134.473 286.202l-4.743.98s1.774 1.167 3.061.974 1.682-1.954 1.682-1.954z" fill="#fafafc"/><g class="C"><path d="M112.315 340.42s3.996 5.609 3.597 6.917-2.119 4.981-2.249 5.617-.053 4.118-.407 4.654-1.204-3.724-1.204-3.724.216 3.738-.437 3.973-1.228-3.754-1.228-3.754.337 3.782-.299 3.804-1.019-3.647-1.019-3.647.222 2.939-.276 2.947-1.633-4.803-.642-6.494c2.341-3.995 1.66-6.131 1.66-6.131l2.504-4.162z"/><path d="M114.885 344.46s1.987 3.32 2.012 4.601.387 3.846-.155 3.841-1.287-3.575-1.679-3.727-.399-1.763-.399-1.763l.221-2.952z"/></g><path d="M125.11 321.774c-4.427 0-6.27-4.427-6.287-4.469a.15.15 0 0 1-.011-.063.15.15 0 0 1 .013-.062c.008-.02.021-.038.036-.053s.034-.027.054-.035.041-.012.062-.012a.17.17 0 0 1 .063.014c.02.008.038.02.053.036s.027.033.035.053c.016.042 1.782 4.262 5.982 4.262s5.841-3.066 5.857-3.097c.01-.019.024-.036.04-.05s.036-.024.057-.03a.15.15 0 0 1 .063-.007c.022.002.043.008.062.018s.036.023.049.039.025.036.031.056a.15.15 0 0 1 .007.063c-.002.021-.008.042-.018.061-.017.033-1.732 3.276-6.148 3.276zm19.83-5.877c-.041-.001-.079-.016-.109-.043s-.049-.064-.055-.104a9.36 9.36 0 0 0-2.67-5.135c-.015-.015-.027-.033-.036-.053s-.012-.042-.012-.063.004-.043.012-.063.021-.038.036-.054c.032-.029.073-.046.116-.046s.085.017.117.046a9.55 9.55 0 0 1 2.767 5.335c.002.021.001.043-.005.064a.17.17 0 0 1-.029.057c-.014.017-.03.032-.049.042a.19.19 0 0 1-.061.02l-.022-.003z" class="F"/><path d="M132.06 342.861a2.89 2.89 0 0 1-1.604-.487c-.474-.317-.844-.768-1.062-1.295s-.276-1.108-.165-1.667a2.89 2.89 0 0 1 2.268-2.268 2.89 2.89 0 0 1 1.667.164c.527.219.978.589 1.295 1.063a2.89 2.89 0 0 1-.359 3.643c-.542.541-1.275.846-2.04.847zm0-4.461a1.58 1.58 0 0 0-.874.267 1.57 1.57 0 0 0-.667 1.616c.061.306.211.586.431.806s.501.369.806.43.622.029.91-.09.533-.321.706-.58.265-.563.265-.874a1.58 1.58 0 0 0-1.577-1.575z" class="E"/><g class="C"><path d="M171.688 299.472l3.35-4.781 3.943 5.548-5.318 4.776-1.975-5.543z"/><path d="M169.87 302.178s-.346-3.043.633-4.501 2.942-5.233 3.514-4.007-1.057 4.685-.979 5.6 3.597 3.747-.65 6.962-2.518-4.054-2.518-4.054zm357.268-94.974s-1.057 7.39 1.583 11.084 8.093 8.973 6.684 10.382-17.066-6.511-16.715-8.271 2.817-8.973 2.289-13.195h6.159z"/></g><path d="M519.629 216.824l-.949 3.575c-.352 1.76 15.309 9.684 16.715 8.271 1.043-1.046-1.685-4.217-4.245-7.297-1.428.905-5.074 1.868-11.521-4.549z" class="B"/><path d="M511.679 208.399s-1.054 7.391 1.585 11.084 8.094 8.974 6.685 10.382-17.066-6.511-16.715-8.27 2.817-8.974 2.289-13.196h6.156z" class="C"/><path d="M509.526 79.685a12.82 12.82 0 0 1 3.847 5.507 12.81 12.81 0 0 1 .533 6.696c-.73 3.63-3.065 7.061-2.49 10.713.222 1.37.83 2.64 1.24 3.968a12.51 12.51 0 0 1 .019 7.053c-.462 1.577-1.292 3.115-2.651 4.034-.926.628-2.036.927-3.129 1.184-2.363.554-4.801.977-7.216.72s-4.831-1.262-6.364-3.141c-1.038-1.261-1.76-2.958-3.29-3.533-.536-.175-1.096-.269-1.66-.277-2.164-.144-4.363-.277-6.483.172-2.26.487-4.385 1.643-6.696 1.726-3.304.119-6.53-2.282-7.36-5.481s.814-6.867 3.758-8.373c2.329-1.192 5.426-1.245 6.956-3.367 1.284-1.782.877-4.305 1.859-6.267 1.71-3.414 6.536-3.633 9.466-6.087 2.836-2.368 4.15-5.905 7.747-7.421 3.796-1.572 8.843-.326 11.914 2.175z" class="H"/><path d="M474.588 147.862s-3.702 17.998 2.197 20.536 25.733 6.997 26.917 10.627 0 33.24 0 33.24l9.438.276 2.675-36.686c-.636-7.471-2.697-9.325-2.697-9.325s4.382 2.767 5.567 9.208c.525 2.861.534 33.782.534 33.782l9.432.276s6.472-41.282-.75-46.957-26.977-13.898-26.977-13.898l-26.336-1.079z" class="K"/><path d="M511.474 123.787l4.342 17.5-6.804 1.661s-4.458-7.681-5.982-14.809 8.444-4.352 8.444-4.352z" class="C"/><path d="M496.754 105.522s7.565 1.76 10.907 6.156 5.457 13.902 5.457 13.902l-7.216 2.285s-.352 5.279-3.694 6.688c0 0-2.111 8.267 0 15.306 0 0-17.769 5.277-28.679 0l-.88-23.928-6.685-2.814s3.519-15.309 11.787-17.595 14.449-1.588 19.003 0z" class="D"/><path d="M467.56 123.787l9.225 3.638s-2.197 7.526-1.491 11.344c1.123 6.088 9.549 12.25 13.682 11.987l-.188 3.652s-20.536-1.3-22.824-12.825 1.596-17.796 1.596-17.796z" class="C"/><path d="M505.902 127.99c-.033-.002-.063-.016-.086-.04a.12.12 0 0 1-.033-.088c.058-2.512-2.155-5.788-2.178-5.81a.12.12 0 0 1-.018-.044c-.004-.016-.004-.032-.001-.048s.009-.031.018-.044.02-.025.033-.034.028-.016.044-.019.032-.004.048-.001.031.009.044.018.025.02.034.033c.094.139 2.28 3.376 2.214 5.966-.004.029-.018.056-.04.077s-.05.032-.079.034zm-17.922 2.946c-1.878 0-4.175-.628-6.613-2.711-.023-.021-.037-.051-.04-.083a.12.12 0 0 1 .029-.087c.02-.024.05-.039.081-.042s.063.006.088.026c5.927 5.069 10.971 1.323 11.021 1.284.012-.011.027-.019.043-.024s.033-.007.049-.005a.13.13 0 0 1 .047.015.11.11 0 0 1 .038.033c.01.013.017.028.021.044a.12.12 0 0 1 .002.05.13.13 0 0 1-.018.046c-.01.014-.022.026-.035.035a8.41 8.41 0 0 1-4.713 1.419zm-9.972-2.946h-.041l-1.223-.44c-.015-.006-.029-.014-.041-.025s-.022-.024-.028-.038a.13.13 0 0 1-.012-.047c-.001-.016.002-.032.007-.047s.014-.029.025-.041a.15.15 0 0 1 .038-.028c.015-.007.031-.01.047-.011s.032.001.047.007l1.106.396 2.698-8.763c.01-.031.031-.058.06-.073s.063-.018.094-.009.057.031.072.06.019.062.009.094l-2.742 8.876a.13.13 0 0 1-.063.075c-.017.008-.035.013-.053.014z" fill="#485f73"/><path d="M508.923 95.437s1.135-.83 1.539-.158c1.032 1.685-1.107 2.593-2.214 2.551l.675-2.393z" class="I"/><path d="M504.737 78.708c-1.469-.444-3.023-.527-4.531-.241s-2.924.932-4.128 1.883a9.52 9.52 0 0 0-2.788 3.579 9.51 9.51 0 0 0-.816 4.463c.061 3.567.133 6.45.711 8.746.604 2.32.308 4.783-.83 6.893l-.462.83c-.211.388-.283.836-.204 1.27a1.94 1.94 0 0 0 .638 1.118c2.128 1.837 3.929 2.108 5.055 2.017.354-.03.691-.159.974-.372a1.88 1.88 0 0 0 .626-.835l1.616-4.291c5.86 1.447 9.014-9.186 10.168-12.247l.138-.343c.459-1.221.662-2.523.597-3.826s-.397-2.578-.975-3.747-1.391-2.207-2.387-3.05-2.153-1.471-3.402-1.848z" class="C"/><path d="M500.681 87.534c-1.496.731-2.946 1.554-4.341 2.463-1.495.93-3.044 1.937-3.894 3.478-1.032-1.646-1.339-3.636-1.502-5.57a9 9 0 0 1 .072-2.687c.277-1.245 1.018-2.33 1.74-3.378.936-1.353 1.937-2.767 3.379-3.528.984-.477 2.056-.745 3.149-.786 2.534-.188 5.149.23 7.382 1.447s4.045 3.273 4.728 5.722c.877 3.154-.149 6.488-1.167 9.598.171-1.383-.277-2.767-.7-4.095-.277-.863-.573-1.746-1.124-2.468-.935-1.234-1.342-1.195-2.946-3.464-1.273 1.682-2.889 2.393-4.776 3.268z" class="H"/><path d="M494.25 91.909c-.037-.343-.2-.66-.456-.891-.52-.479-1.506-1.159-2.532-.694-1.508.683-.399 4.427 2.321 3.793 0 0 .867-.387.667-2.208z" class="C"/><path d="M507.806 95.796c.073-.148.1-.313.079-.476a.83.83 0 0 0-.61-.693.83.83 0 0 0-.874.299c-.099.131-.158.288-.168.452a.83.83 0 0 0 1.573.418zm-7.582-2.421c.073-.147.1-.313.078-.476a.82.82 0 0 0-.199-.439.83.83 0 0 0-1.284.045c-.099.131-.158.288-.168.452a.83.83 0 0 0 1.573.418z" class="J"/><path d="M503.599 99.95s-.517-.706-.957-.722c-.318.024-.615.169-.83.404-.027-.16-.094-.311-.195-.439s-.233-.227-.383-.289c-.49-.16-1.99-.219-1.99-.219s.614 2.49 2.214 2.598c.438.037.877-.065 1.254-.293s.672-.569.843-.974l.044-.067z" fill="#dd4e4e"/><path d="M501.947 100.373c-1.804-.174-3.043-1.937-3.068-1.962-.009-.013-.015-.027-.018-.042s-.003-.031-.001-.046a.13.13 0 0 1 .017-.043c.009-.013.02-.024.032-.033s.027-.015.043-.018.03-.003.045-.001.03.009.043.017.024.019.033.032c.08.116 2.031 2.864 4.565 1.5a.12.12 0 0 1 .083.001c.026.01.048.03.061.055s.018.054.012.082-.023.052-.045.069c-.548.308-1.176.442-1.802.388z" class="J"/><path d="M498.085 91.616a.35.35 0 0 1-.121-.087c-.033-.037-.058-.083-.072-.131a.34.34 0 0 1 .029-.263c.044-.08.118-.14.206-.166a4.15 4.15 0 0 1 2.767.307c.082.041.145.112.174.198a.35.35 0 0 1-.016.264c-.04.083-.114.142-.2.172s-.179.026-.262-.011a3.45 3.45 0 0 0-2.258-.277.34.34 0 0 1-.247-.006zm8.196 2.102c-.059-.04-.105-.097-.13-.163s-.03-.139-.013-.208a.35.35 0 0 1 .3-.26 4.1 4.1 0 0 1 2.656.797c.04.026.074.059.101.099a.36.36 0 0 1 .053.131.35.35 0 0 1-.004.141c-.011.046-.031.09-.059.128s-.064.07-.106.093-.086.038-.133.044a.35.35 0 0 1-.141-.013c-.045-.014-.087-.037-.123-.068a3.42 3.42 0 0 0-2.175-.664c-.079.009-.16-.01-.226-.055z" class="H"/><path d="M502.54 97.18c-.287-.005-.57-.07-.831-.191-.014-.006-.028-.016-.039-.027s-.02-.025-.026-.04-.009-.031-.008-.047.003-.032.01-.047c.013-.029.037-.052.067-.064s.064-.012.093 0c1.085.473 1.544-.174 1.647-.349-.468-1.461.202-2.963.232-3.027.014-.029.038-.052.069-.063s.064-.01.093.004.052.038.063.069.01.064-.003.093c0 .014-.676 1.513-.208 2.897.011.028.011.06 0 .089-.112.21-.279.387-.483.51a1.33 1.33 0 0 1-.676.192z" class="I"/><path d="M488.788 154.414a4.51 4.51 0 0 0 2.012.617c1.129.049 4.463-.255 5.002-.177s3.218 1.106 3.738.99-2.559-1.981-2.559-1.981 2.847 1.217 3.212.775-2.576-2.012-2.576-2.012 2.895.883 3.091.393-2.601-1.383-2.601-1.383 2.648.393 2.795 0-3.678-1.815-5.296-1.716-6.641.83-6.641.83l-.177 3.664z" class="C"/><g class="B"><path d="M504.183 218.02l-.949 3.575c-.351 1.759 15.307 9.684 16.715 8.27 1.044-1.046-1.685-4.22-4.244-7.297-1.439.897-5.086 1.868-11.522-4.548zm34.692-78.968l-31.023-2.734-11.726 21.839 31.02 2.734 11.729-21.839z"/><path d="M502.325 157.35l-20.768-1.832-.121 1.373 20.768 1.831.121-1.372zm-4.376-62.049a2.81 2.81 0 0 1-1.458-3.187c.196-.705.66-1.306 1.292-1.673a2.81 2.81 0 0 1 2.094-.295 2.8 2.8 0 0 1 2.048 3.338 2.8 2.8 0 0 1-.469.988 2.79 2.79 0 0 1-.811.733c-.316.189-.667.313-1.031.366a2.8 2.8 0 0 1-1.092-.056 2.76 2.76 0 0 1-.573-.213zm2.435-4.853a2.41 2.41 0 0 0-.534-.199c-.504-.127-1.034-.102-1.524.073a2.63 2.63 0 0 0-1.743 2.343 2.63 2.63 0 0 0 1.497 2.508 2.63 2.63 0 0 0 2.889-.423c.386-.348.66-.803.787-1.307.147-.581.091-1.194-.159-1.739s-.677-.987-1.213-1.255z"/><path d="M505.793 97.65a2.8 2.8 0 0 1-1.14-1.055 2.81 2.81 0 0 1-.404-1.501c.01-.528.169-1.043.459-1.485a2.8 2.8 0 0 1 2.715-1.242 2.8 2.8 0 0 1 1.423.625 2.81 2.81 0 0 1 .872 1.287 2.8 2.8 0 0 1 .051 1.553 2.78 2.78 0 0 1-.468.988 2.8 2.8 0 0 1-2.932 1.043 2.77 2.77 0 0 1-.576-.213zm2.444-4.853c-.173-.085-.354-.151-.54-.199-.504-.127-1.034-.102-1.524.073a2.63 2.63 0 0 0-1.743 2.343 2.63 2.63 0 0 0 1.497 2.508 2.63 2.63 0 0 0 2.889-.423c.386-.348.66-.803.787-1.307a2.63 2.63 0 0 0-.159-1.736 2.64 2.64 0 0 0-1.207-1.258zm-14.8-2.064l.06-.16 3.18 1.195-.059.163-3.181-1.198z"/><path d="M501.754 93.887l-.044-.166c1.892-.515 2.767.78 2.767.794l-.144.094c-.028-.05-.808-1.19-2.579-.722z"/></g><path d="M518.123 148.349c.072-.181.196-.338.355-.45a1.01 1.01 0 0 1 .542-.185c.195-.009.388.04.556.139s.304.244.392.418.123.37.102.564a1.01 1.01 0 0 1-.694.853c-.185.061-.384.066-.572.016a1.07 1.07 0 0 1-.681-1.355z" class="D"/><path d="M203.186 280.411H172v161.093h31.186V280.411z" class="L"/><path d="M193.64 280.411H182.312V441.773H193.64V280.411Z" fill="#e09a11"/><path d="M187.976 249.784L172 280.408h31.186l-15.21-30.624z" class="D"/><path d="M187.976 249.784l-7.988 15.312h15.592l-7.604-15.312z" class="B"/><path d="M203.186 440.218H172v17.614h31.186v-17.614z" fill="#474fea"/><path d="M203.186 434.006H172v7.498h31.186v-7.498zm241.58-290.076H244.015v258.807h200.751V143.93z" class="D"/><path d="M444.766 143.93H244.015v18.989h200.751V143.93z" fill="#474fea"/><path d="M252.133 153.31a2.27 2.27 0 0 1 .381-1.263c.25-.374.604-.666 1.019-.838a2.27 2.27 0 0 1 1.313-.13c.441.087.846.303 1.164.621a2.27 2.27 0 0 1 .493 2.476c-.171.415-.463.77-.836 1.019a2.27 2.27 0 0 1-1.263.384c-.601-.001-1.178-.24-1.604-.666a2.27 2.27 0 0 1-.667-1.603zm9.529 0a2.27 2.27 0 0 1 1.401-2.101 2.26 2.26 0 0 1 1.313-.13c.441.087.846.304 1.164.622a2.27 2.27 0 0 1 .622 1.163 2.28 2.28 0 0 1-.13 1.313 2.27 2.27 0 0 1-.838 1.02 2.28 2.28 0 0 1-1.263.382 2.27 2.27 0 0 1-1.604-.666c-.425-.425-.664-1.002-.665-1.603zm9.529 0a2.28 2.28 0 0 1 .382-1.263 2.27 2.27 0 0 1 1.019-.838c.416-.173.873-.218 1.314-.13a2.27 2.27 0 0 1 1.163.622 2.26 2.26 0 0 1 .492 2.476 2.27 2.27 0 0 1-.838 1.02 2.28 2.28 0 0 1-1.263.382 2.27 2.27 0 0 1-2.269-2.269zm45.641 24.675h-56.907v56.907h56.907v-56.907z" fill="#dde7fe"/><path d="M264.2 228.39l16.809-30.303 12.357 16.859 6.173-6.746 13.077 20.19H264.2zm24.817-34.653c0-.86.255-1.701.733-2.416a4.35 4.35 0 0 1 1.952-1.602 4.34 4.34 0 0 1 2.513-.248c.844.168 1.619.582 2.227 1.191a4.35 4.35 0 0 1 .943 4.74c-.329.794-.887 1.474-1.602 1.952a4.35 4.35 0 0 1-6.766-3.617z" class="E"/><path d="M427.351 177.927h-40.413v6.098h40.413v-6.098zm-47.632 0h-49.567v6.098h49.567v-6.098z" class="L"/><path d="M387.92 195.995h-57.768v2.789h57.768v-2.789zm20.904 0h-17.302v2.789h17.302v-2.789zm-55.139 8.647h-23.533v2.789h23.533v-2.789zm33.601 0h-31.214v2.789h31.214v-2.789zm21.538 0h-17.302v2.789h17.302v-2.789zm-47.735 7.473h-30.937v2.789h30.937v-2.789zm53.753 0h-48.825v2.789h48.825v-2.789zm-26.922 11.344h-57.768v2.79h57.768v-2.79zm20.904 0h-17.302v2.79h17.302v-2.79zm-55.139 8.644h-23.533v2.789h23.533v-2.789zm33.601 0h-31.214v2.789h31.214v-2.789zm-31.385 34.457h-96.438v3.677h96.438v-3.677zm34.897 0h-28.884v3.677h28.884v-3.677zm-92.05 11.402h-39.285v3.678h39.285v-3.678zm56.096 0h-52.11v3.678h52.11v-3.678zm35.954 0h-28.884v3.678h28.884v-3.678zm-79.69 9.859h-51.645v3.677h51.645v-3.677zm89.734 0h-81.508v3.677h81.508v-3.677z" class="E"/><path d="M408.824 301.716H261.807v85.216h147.017v-85.216z" fill="#dde7fe"/><path d="M318.725 322.496v43.659l33.181-21.828-33.181-21.831z" class="E"/><path d="M319.333 251.068h-59.425v5.08h59.425v-5.08zm53.753 0h-46.725v5.08h46.725v-5.08z" class="F"/><path d="M547.464 242.424h-55.529v2.482h55.529v-2.482zm-31.358 8.243h-24.171v2.482h24.171v-2.482zm31.358 0H519.7v2.482h27.764v-2.482zm-22.044 7.432h-33.485v2.482h33.485v-2.482zm22.044 0h-18.126v2.482h18.126v-2.482zm-30.099 8.198h-25.43v2.482h25.43v-2.482zm30.099 0h-23.605v2.482h23.605v-2.482zm0 22.243h-74.021v2.482h74.021v-2.482zm-41.8 8.243h-32.221v2.482h32.221v-2.482zm41.8 0h-37.011v2.482h37.011v-2.482zm-29.385 7.432h-44.636v2.482h44.636v-2.482zm29.384 0H523.3v2.482h24.163v-2.482zm-40.119 8.198h-33.901v2.482h33.901v-2.482zm40.12 0h-31.466v2.482h31.466v-2.482z" class="E"/><path d="M481.373 259.482c0-18.671-16.389-33.806-36.607-33.806s-36.609 15.135-36.609 33.806c0 9.056 3.857 17.279 10.135 23.347 2.822 2.711 5.07 5.962 6.608 9.559a29.15 29.15 0 0 1 2.349 11.381c0 1.522.3 3.029.882 4.435a11.58 11.58 0 0 0 2.512 3.759 11.59 11.59 0 0 0 3.759 2.512c1.406.583 2.913.882 4.435.882h11.856a11.59 11.59 0 0 0 8.194-3.394c2.173-2.173 3.394-5.12 3.394-8.194.011-3.913.81-7.783 2.349-11.381s3.788-6.849 6.61-9.559c6.279-6.068 10.133-14.291 10.133-23.347z" class="L"/><g class="B"><path d="M451.186 319.569c-.11-.001-.216-.044-.296-.12a.43.43 0 0 1-.133-.29c-.202-3.766 5.509-62.643 5.753-65.15.002-.059.017-.116.043-.169a.43.43 0 0 1 .106-.138.44.44 0 0 1 .325-.103.44.44 0 0 1 .166.052c.051.029.096.067.132.114a.43.43 0 0 1 .077.156c.014.057.017.116.008.174l-5.749 65.023a.43.43 0 0 1-.024.166c-.018.053-.047.102-.085.144a.43.43 0 0 1-.135.1.44.44 0 0 1-.163.041h-.025zm-13.168 0h-.014c-.056-.003-.111-.017-.162-.041a.43.43 0 0 1-.135-.101.41.41 0 0 1-.085-.144.42.42 0 0 1-.024-.165c.199-3.705-5.692-64.409-5.75-65.023-.009-.058-.006-.117.008-.174a.43.43 0 0 1 .077-.156c.036-.047.081-.085.132-.114s.108-.046.166-.052.118.001.174.018a.43.43 0 0 1 .152.085.46.46 0 0 1 .106.138.45.45 0 0 1 .043.169l5.752 65.15c-.006.112-.055.218-.137.294s-.191.118-.303.116z"/><path d="M443.496 269.103a5.35 5.35 0 0 1-3.232-1.14 3.62 3.62 0 0 1-2.426.725c-1.223-.111-2.402-.949-3.157-2.244-.648-1.107-1.66-4.912-1.937-6.218-.012-.056-.001-.114.031-.162s.08-.082.136-.094.115 0 .163.031.081.081.093.137c.277 1.353 1.303 5.058 1.901 6.087.683 1.173 1.738 1.937 2.822 2.031.73.049 1.454-.157 2.048-.584-1.577-1.444-2.164-3.467-2.38-4.911-.276-1.813-.038-3.321.684-4.474.27-.478.683-.858 1.181-1.088 1.148-.473 2.49.343 3.005 1.406s.465 2.244.368 3.381c-.119 1.411-.313 3.044-1.107 4.408-.282.487-.643.923-1.068 1.292 1.326.985 3.027 1.267 4.383.689a4.09 4.09 0 0 0 1.511-1.135c-.54-.316-.974-.783-1.251-1.344a5.28 5.28 0 0 1-.415-2.006c-.106-1.99.112-3.985.645-5.905.01-.034.028-.065.053-.09s.054-.045.088-.057c.678-.218 1.361.189 1.713.656a4 4 0 0 1 .611 1.66c.277 1.356.515 3.127.127 4.818a6.16 6.16 0 0 1-.918 2.119c.769.325 1.627.371 2.426.133.447-.141.866-.356 1.24-.637-.263-.41-.477-.849-.639-1.308-1.098-3.078-1.005-6.456.26-9.469.011-.028.029-.053.05-.073s.049-.036.077-.046c.927-.323 1.898.249 2.377.985s.598 1.677.659 2.491c.105 1.402.146 3.231-.474 4.939a6.2 6.2 0 0 1-1.715 2.57c.175.244.398.45.655.604a2.2 2.2 0 0 0 .842.293 2.26 2.26 0 0 0 1.284-.33 3.13 3.13 0 0 0 1.461-3.101.21.21 0 0 1 .038-.161c.033-.047.084-.078.14-.087s.114.004.161.038.078.084.087.14c.103.689 0 1.392-.295 2.022s-.771 1.159-1.365 1.52a2.63 2.63 0 0 1-1.539.387 2.58 2.58 0 0 1-1.801-1.054c-.418.31-.886.547-1.384.7-.93.278-1.93.21-2.814-.193a4.59 4.59 0 0 1-1.732 1.328c-.53.218-1.098.327-1.671.321zm-3.378-11.622a1.48 1.48 0 0 0-.554.106 2.21 2.21 0 0 0-.979.918c-.656 1.052-.872 2.491-.623 4.181.205 1.384.761 3.298 2.244 4.657l.067.058c.413-.348.762-.766 1.032-1.234.738-1.295.924-2.861 1.04-4.228.091-1.076.141-2.214-.326-3.157-.349-.703-1.127-1.284-1.901-1.284v-.017zm5.752.731c-.498 1.838-.7 3.743-.598 5.645a4.84 4.84 0 0 0 .374 1.842c.248.5.639.914 1.123 1.19a5.72 5.72 0 0 0 .889-2.02c.368-1.613.124-3.32-.13-4.643-.066-.528-.248-1.034-.535-1.483a1.24 1.24 0 0 0-.492-.409c-.197-.091-.415-.129-.631-.111v-.011zm4.934-2.15c-1.185 2.891-1.261 6.118-.214 9.062.149.413.342.809.576 1.181a5.79 5.79 0 0 0 1.566-2.365c.592-1.63.553-3.401.446-4.76-.056-.749-.153-1.607-.59-2.277-.362-.545-1.093-1.012-1.784-.83v-.011z"/></g><path d="M430.052 325.517h29.426v5.33c0 .816-.324 1.598-.901 2.175a3.08 3.08 0 0 1-2.176.901h-23.272a3.08 3.08 0 0 1-2.176-.901c-.577-.577-.901-1.359-.901-2.175v-5.33z" fill="#424be1"/><path d="M446.581 329.585c-8.666 0-16.38-2.471-16.878-2.629-.355-.11-.684-.289-.969-.528s-.519-.531-.689-.861-.274-.69-.304-1.061.013-.742.129-1.095a2.81 2.81 0 0 1 .541-.962c.243-.281.539-.511.871-.677a2.8 2.8 0 0 1 1.065-.289c.37-.025.742.024 1.094.144.26.083 16.255 5.158 26.252.158a2.79 2.79 0 0 1 1.059-.301c.37-.03.742.015 1.094.13s.678.299.959.541.51.538.676.869.264.693.29 1.063a2.81 2.81 0 0 1-.143 1.092c-.119.351-.306.675-.552.953a2.82 2.82 0 0 1-.876.667c-4.181 2.086-9.037 2.786-13.619 2.786z" class="B"/><path d="M446.581 325.03c-8.666 0-16.38-2.47-16.878-2.628a2.8 2.8 0 0 1-1.758-3.521 2.8 2.8 0 0 1 3.496-1.808c.26.083 16.255 5.157 26.252.158a2.79 2.79 0 0 1 1.059-.301 2.78 2.78 0 0 1 1.094.13c.352.115.678.299.959.541a2.82 2.82 0 0 1 .676.869c.166.332.264.693.29 1.063s-.024.741-.143 1.092-.306.674-.552.952-.543.505-.876.667c-4.181 2.095-9.037 2.786-13.619 2.786z" fill="#424be1"/><path d="M446.581 320.476c-8.666 0-16.38-2.471-16.878-2.629-.355-.11-.684-.289-.969-.528s-.519-.531-.689-.861-.274-.69-.304-1.06.013-.743.129-1.096.299-.68.541-.961.539-.512.871-.678a2.8 2.8 0 0 1 1.065-.289c.37-.025.742.024 1.094.144.26.083 16.255 5.158 26.252.158a2.8 2.8 0 0 1 3.733 1.267 2.8 2.8 0 0 1-1.226 3.747c-4.181 2.094-9.037 2.786-13.619 2.786z" class="B"/><path d="M524.135 429.2s12.081 5.351 14.845 6.04 11.734-.517 7.246-6.04-8.284-2.59-16.396-6.732-5.695 6.732-5.695 6.732z" class="D"/><path d="M493.639 398.611s-22.913-5.049-27.442 7.897 17.816 19.003 21.961 19.922 13.679 1.727 15.835 2.416 10.185 1.383 11.305 1.9 12.687 3.193 12.687 3.193l8.63-11.823-8.962-7.634-3.83-14.075-30.184-1.796z" fill="#e85b54"/><path d="M510.985 344.631s18.641-1.034 27.7 12.175 16.048 25.112 3.624 36.504-29.772 5.694-29.772 5.694l-23.04 1.425s-23.818-1.682-18.123-23.948 19.59-31.332 39.611-31.85z" class="D"/><path d="M531.435 370.522h-42.154c-.621 0-1.124.503-1.124 1.123v29.338c0 .62.503 1.123 1.124 1.123h42.154c.62 0 1.123-.503 1.123-1.123v-29.338c0-.62-.503-1.123-1.123-1.123z" class="B"/><path d="M499.075 431.964s-12.083 5.351-14.844 6.043-11.737-.52-7.249-6.043 8.3-2.587 16.396-6.729 5.697 6.729 5.697 6.729z" class="D"/><path d="M523.798 383.487c-.03 0-.06-.009-.085-.027s-.044-.042-.054-.07-.012-.06-.005-.09.024-.056.048-.075c9.908-8.752 16.048-7.723 16.305-7.673a.15.15 0 0 1 .057.02c.017.01.032.024.044.041s.02.035.025.054.004.041.001.061a.14.14 0 0 1-.023.055c-.011.017-.026.031-.043.042s-.036.019-.056.022-.041.003-.06-.002c-.058 0-6.267-1.038-16.048 7.604-.029.026-.067.04-.106.038zm-27.313 0c-.039 0-.077-.016-.105-.044-6.239-6.237-15.752-8.353-15.849-8.375-.019-.004-.037-.012-.053-.023s-.03-.026-.041-.042-.018-.035-.021-.054-.003-.039.002-.059c.009-.038.032-.072.065-.094s.073-.029.112-.022c.097.022 9.684 2.156 15.995 8.456.015.014.027.03.034.049s.012.038.012.058-.004.039-.012.058-.019.034-.034.048c-.028.028-.065.044-.105.044zm30.55-10.818c-.034-.001-.067-.013-.094-.034s-.045-.052-.052-.085l-1.555-7.435a.15.15 0 0 1 .029-.104c.023-.03.055-.051.092-.058s.074-.001.106.017.057.049.069.084l1.552 7.432a.15.15 0 0 1-.022.113c-.022.034-.055.058-.094.067l-.031.003zm-34.951 1.497c-.02-.002-.039-.007-.056-.016s-.034-.021-.046-.036-.023-.032-.029-.051-.009-.038-.007-.058l.647-8.024c.005-.039.024-.075.055-.101s.069-.039.108-.037.077.022.103.053.039.07.036.11l-.65 8.024c-.004.039-.023.075-.053.101s-.069.038-.108.035z" class="B"/><path d="M490.548 333.442s-1.409-.83-1.807-.017c-1.01 2.07 1.419 2.903 2.686 2.734l-.879-2.717z" class="I"/><path d="M519.786 410.714h-.03c-1.107-.224-3.855-1.126-6.278-1.937l-3.16-1.015c-1.757-.51-9.153-1.196-9.228-1.204-.155-.028-13.973-2.767-15.511-3.107-.039-.01-.072-.033-.094-.067s-.028-.074-.02-.113c.005-.019.013-.038.024-.054s.026-.03.042-.04.036-.018.055-.021.04-.003.059.001c1.533.341 15.348 3.077 15.495 3.105.277.028 7.471.697 9.269 1.212.65.188 1.818.573 3.171 1.018 2.297.755 5.152 1.693 6.245 1.912.035.009.065.031.086.061s.029.066.026.101-.02.07-.046.095-.06.04-.097.042l-.008.011z" class="B"/><path d="M512.799 344.595c-2.319-4.71-3.548-9.882-3.597-15.132-.022-1.779-.163-3.771-.337-6.018-.058-1.655-.485-3.276-1.25-4.744s-1.848-2.747-3.171-3.743a11.11 11.11 0 0 0-4.475-2.012c-1.622-.329-3.298-.291-4.904.111s-3.102 1.158-4.379 2.212-2.301 2.382-2.998 3.883-1.051 3.14-1.034 4.796.404 3.287 1.133 4.774c.064.127.13.254.199.381 1.61 3.296 5.036 15.357 12.279 13.395l.994 4.889s5.857 1.66 11.549-2.794l-.009.002z" class="C"/><path d="M491.738 331.735a.81.81 0 0 1-.076-.464c.022-.158.09-.307.195-.426a.81.81 0 0 1 .4-.247c.154-.041.318-.035.469.017a.81.81 0 0 1 .38.275c.097.127.154.28.164.44a.81.81 0 0 1-.109.456c-.081.138-.2.25-.344.319a.79.79 0 0 1-.305.081.79.79 0 0 1-.312-.042.81.81 0 0 1-.272-.158c-.079-.071-.144-.156-.19-.251zm9.595-2.446c-.07-.144-.096-.305-.075-.464a.8.8 0 0 1 .195-.426.81.81 0 0 1 1.249.045.8.8 0 0 1 .163.44.81.81 0 0 1-.108.456c-.081.138-.201.25-.344.32-.095.046-.199.074-.305.08s-.212-.007-.312-.042a.8.8 0 0 1-.272-.158c-.079-.071-.144-.156-.191-.251zm-3.262 8.898c-.621-.005-1.231-.168-1.773-.473-.022-.01-.042-.025-.058-.044a.19.19 0 0 1-.037-.063c-.008-.024-.01-.048-.008-.072s.009-.048.021-.07.028-.04.047-.055a.2.2 0 0 1 .065-.033.2.2 0 0 1 .073-.004c.024.004.048.013.068.026 2.881 1.555 5.108-1.569 5.202-1.705a.18.18 0 0 1 .249-.044c.039.027.066.069.075.116s-.001.096-.028.136c-.022.027-1.627 2.285-3.896 2.285zm10.919-18.801l.581 7.897-1.992.525-5.349-8.176 6.76-.246z" class="B"/><path d="M507.191 327.731a1.66 1.66 0 0 1 .434-1.085c.553-.614 1.619-1.513 2.864-1.084 1.823.625.949 5.08-2.28 4.657 0 0-1.032-.355-1.018-2.488z" class="C"/><path d="M497.692 335.014c-.226-.002-.452-.036-.669-.1-.119-.021-.233-.065-.335-.131a.89.89 0 0 1-.257-.251c-.13-.241-.047-.523.061-.88.199-.661.5-1.66-.083-3.381-.009-.023-.012-.046-.011-.07a.18.18 0 0 1 .017-.069c.011-.022.025-.041.043-.057a.19.19 0 0 1 .061-.036c.023-.008.047-.011.071-.009s.047.008.068.019.041.025.056.044.028.039.035.062c.622 1.831.277 2.938.088 3.597-.088.276-.149.495-.091.606s.169.146.376.207a1.68 1.68 0 0 0 1.074.014c.35-.113.653-.338.863-.639.026-.04.067-.068.113-.079s.095-.003.136.021.068.067.079.113.002.095-.023.136c-.189.269-.439.49-.729.643a2.07 2.07 0 0 1-.943.24z" class="I"/><path d="M499.784 327.853c-.115-.008-.224-.051-.313-.124s-.152-.171-.183-.282a.55.55 0 0 1 .219-.601 4.72 4.72 0 0 1 3.97-.355.55.55 0 0 1 .212.3c.035.121.027.25-.021.366a.55.55 0 0 1-.246.272c-.11.06-.239.081-.362.059a3.59 3.59 0 0 0-1.537-.194c-.521.047-1.024.208-1.476.47a.54.54 0 0 1-.263.089zm-9.762 3.688a.56.56 0 0 1-.321-.102.55.55 0 0 1-.209-.355c-.022-.14.012-.284.093-.401a5.06 5.06 0 0 1 2.927-1.967c.141-.021.285.013.401.095a.55.55 0 0 1 .225.345c.012.069.011.141-.004.209s-.044.134-.085.192a.52.52 0 0 1-.151.145.54.54 0 0 1-.195.077 4.03 4.03 0 0 0-2.246 1.543c-.05.069-.116.124-.191.162a.53.53 0 0 1-.244.057zm18.157-14.33c.686-.943.185-2.49-.921-2.858-.156-.035-.306-.094-.443-.174-.166-.147-.285-.339-.34-.554l-.493-1.345a.79.79 0 0 0-.232-.381.78.78 0 0 0-.385-.108c-.772-.078-1.624-.136-2.255.318-.83-.512-1.751-1.04-2.731-.974-.313.019-.62.102-.932.108-1.21.019-2.35-1.107-3.495-.708-.29.125-.568.277-.83.453-.803.449-1.752.526-2.631.794s-1.782.844-1.937 1.749c-.01.192-.058.38-.141.554-.115.148-.271.259-.449.318-.938.401-1.972.653-2.733 1.328s-1.091 2.003-.332 2.687c-.621.24-1.143.682-1.483 1.253a1.92 1.92 0 0 0-.26.941 1.94 1.94 0 0 0 .232.949.8.8 0 0 1 .158.354c0 .241-.233.401-.427.553-.447.354-.747.861-.842 1.423s.023 1.14.331 1.621c.16.185.29.394.384.62a3.73 3.73 0 0 1 .058.642c.036.295.166.571.37.787a1.38 1.38 0 0 0 .767.411c.72.113 1.384-.349 1.971-.786 0 .277.356.39.63.407.86.022 1.701-.249 2.386-.769s1.172-1.258 1.38-2.092c.985.088 2.214.055 2.662-.83a2.54 2.54 0 0 0 .196-.612l.485-2.125c.307-.055.553.244.653.553.049.306.128.606.235.897.354.664 1.3.634 2.042.509.421-.045.831-.163 1.212-.349.189-.095.351-.237.471-.412a1.26 1.26 0 0 0 .212-.589c.396.647 1.301.714 2.056.633 1.884-.202 3.525-.899 5.146-1.845.595-.349 1.002-.501 1.107-1.248.055-.394.005-.796-.145-1.165a2.26 2.26 0 0 0-.707-.938z" class="B"/><path d="M527.724 397.446s15.708-9.321 24.164.864-6.558 18.12-10.183 21.399-7.766 5.534-12.254 6.043-5.869 1.035-11.046 2.767-9.493 3.279-10.011 3.625-8.964 3.267-8.964 3.267-8.631-8.63-8.802-11.219l10.874-9.715c2.415-2.194 13.981-4.956 16.048-7.717s10.174-9.314 10.174-9.314z" class="K"/><path d="M510.359 387.823a1.51 1.51 0 1 0 0-3.021 1.51 1.51 0 1 0 0 3.021z" class="D"/><defs><linearGradient id="A" x1="369.269" y1="0" x2="369.269" y2="494" gradientUnits="userSpaceOnUse"><stop stop-color="#d8e2f5"/><stop offset="1" stop-color="#fff" stop-opacity="0"/></linearGradient><linearGradient id="B" x1="382.569" y1="428.638" x2="382.569" y2="475.947" gradientUnits="userSpaceOnUse"><stop stop-color="#d8e2f5"/><stop offset="1" stop-color="#fff" stop-opacity="0"/></linearGradient></defs></svg>